IMDB Link: 
http://www.imdb.com/title/tt1912398/


Description:

On a mission to rid society of its most repellent citizens, terminally ill Frank makes an unlikely accomplice in 16-year-old Roxy.

General

Unique ID : 254506689238117635943784409922366289741 (0xBF7834941D6D33D1922ACA94722B374D)
Complete name : God.Bless.America.2011.720p.HDRiP.AC3-5.1.x264-SiC.mkv
Format : Matroska
Format version : Version 2
File size : 3.31 GiB
Duration : 1h 44mn
Overall bit rate : 4 543 Kbps
Encoded date : UTC 2012-04-07 15:00:07
Writing application : mkvmerge v4.0.0 ('The Stars were mine') built on Jun 6 2010 16:18:42
Writing library : libebml v1.0.0 + libmatroska v1.0.0

Video

ID : 1
Format : AVC
Format/Info : Advanced Video Codec
Format profile : High@L4.1
Format settings, CABAC : Yes
Format settings, ReFrames : 1 frame
Codec ID : V_MPEG4/ISO/AVC
Duration : 1h 44mn
Bit rate : 4 200 Kbps
Width : 1 280 pixels
Height : 544 pixels
Display aspect ratio : 2.35:1
Frame rate : 23.976 fps
Color space : YUV
Chroma subsampling : 4:2:0
Bit depth : 8 bits
Scan type : Progressive
Bits/(Pixel*Frame) : 0.252
Stream size : 2.97 GiB (90%)
Writing library : x264 core 68 r1195bm 5d75a9b
Default : Yes
Forced : No

Audio

ID : 2
Format : AC-3
Format/Info : Audio Coding 3
Mode extension : CM (complete main)
Codec ID : A_AC3
Duration : 1h 44mn
Bit rate mode : Constant
Bit rate : 384 Kbps
Channel(s) : 6 channels
Channel positions : Front: L C R, Side: L R, LFE
Sampling rate : 48.0 KHz
Bit depth : 16 bits
Compression mode : Lossy
Stream size : 287 MiB (8%)
Default : Yes
Forced : No

hxxp://img803.imageshack.us/img803/9669/screencap00009.png
hxxp://img85.imageshack.us/img85/8877/screencap00010.png
hxxp://img545.imageshack.us/img545/2172/screencap00015.png

Note : Get ready for the latest Bobcat Goldthwait film in 720p HD before it even hits theatres! Encoded from a 720p HD wmv Digital VOD Rental. Source file included DD 5.1 audio, so we included that aswell. Did the usual stuff, turned out nice.

Source: 720p wmv Digital VOD Rental - Our Own

Enjoy!

HAVE FUN!!!